<?xml version="1.0" encoding="utf-8"?>
<!-- Generator: Adobe Illustrator 19.2.1, SVG Export Plug-In . SVG Version: 6.00 Build 0)  -->
<svg version="1.1" id="layer" xmlns="http://www.w3.org/2000/svg" xmlns:xlink="http://www.w3.org/1999/xlink" x="0px" y="0px"
	 viewBox="0 0 652 652" style="enable-background:new 0 0 652 652;" xml:space="preserve">
<style type="text/css">
	.st0{fill:#76777A;}
	.st1{fill:url(#SVGID_1_);}
</style>
<path class="st0" d="M69,300.8h-4.7v28.6c0,11.5-7.7,18.7-18.5,18.7c-9.7,0-15-4.9-15-16.8v-30.5H26v31.3c0,13.9,8.1,20.2,19.6,20.2
	c8.2,0,15.4-4.1,18.7-10.7v9.5H69L69,300.8z M107.6,299.6c-8.2,0-15.4,4.1-18.7,10.7v-9.5h-4.7v50.2h4.7v-28.6
	c0-11.5,7.8-18.7,18.5-18.7c9.5,0,15,5.1,15,16.8v30.4h4.7v-31.2C127.2,305.9,118.5,299.6,107.6,299.6 M144.2,285.1
	c-0.8,0-1.6,0.2-2.2,0.7s-1.2,1.1-1.5,1.8c-0.3,0.7-0.4,1.5-0.2,2.3c0.2,0.8,0.5,1.5,1.1,2c0.6,0.6,1.3,0.9,2,1.1
	c0.8,0.2,1.6,0.1,2.3-0.2c0.7-0.3,1.3-0.8,1.8-1.5c0.4-0.7,0.7-1.4,0.7-2.2c0-1-0.4-2-1.2-2.8C146.2,285.5,145.2,285.1,144.2,285.1z
	 M146.5,300.8h-4.7v50.2h4.7L146.5,300.8z M187,299.6c-4.2-0.1-8.4,1-12,3.1c-3.6,2.2-6.6,5.3-8.5,9.1v-10.9h-4.7v83.8h4.7v-44.4
	c1.9,3.8,4.9,6.9,8.5,9.1c3.6,2.2,7.8,3.2,12,3.1c14.9,0,25.8-11.5,25.8-26.4S201.9,299.6,187,299.6z M187,348.1
	c-12.3,0-20.9-9.3-20.9-22.1s8.5-22.1,20.9-22.1c12.3,0,20.9,9.3,20.9,22.1S199.4,348.1,187,348.1z M229.3,267.3h-4.7v83.8h4.7
	v-28.6c0-11.5,7.6-18.7,18.5-18.7c9.5,0,15,5.1,15,16.8v30.4h4.7v-31.2c0-13.9-8.7-20.2-19.6-20.2c-3.8-0.1-7.6,0.8-10.8,2.7
	c-3.3,1.9-6,4.7-7.8,8L229.3,267.3z M304.7,299.6c-5.2-0.1-10.4,1.4-14.8,4.2c-4.4,2.8-7.9,6.9-9.9,11.7c-2.1,4.8-2.7,10.1-1.7,15.3
	c1,5.2,3.4,9.9,7.1,13.6c3.7,3.7,8.4,6.3,13.5,7.4c5.1,1.1,10.5,0.6,15.3-1.4c4.9-2,9-5.4,11.9-9.7c2.9-4.4,4.5-9.5,4.5-14.7
	c0.1-3.4-0.6-6.9-1.8-10.1c-1.3-3.2-3.2-6.1-5.6-8.6c-2.4-2.5-5.3-4.4-8.5-5.7C311.5,300.3,308.1,299.6,304.7,299.6z M304.7,348.3
	c-12.2,0-21-9.6-21-22.3c0-12.7,8.9-22.3,21-22.3s21,9.7,21,22.3C325.7,338.6,316.8,348.3,304.7,348.3z M362.1,299.6
	c-6.5,0-11.9,3.9-15,10.1v-8.9h-4.7v50.2h4.7v-29c0-10.3,6.8-18,14.7-18c2.2-0.2,4.4,0.2,6.3,1.3l1.7-3.9
	C367.5,300,364.8,299.4,362.1,299.6z M397.1,299.6c-13.9,0-25.3,11.5-25.3,26.4c0,14.9,10.9,26.4,26.4,26.4c9.6,0,16.6-3.5,21.2-9.3
	l-3.2-2.8c-4,4.9-9,8.1-18,8.1c-11.9,0-21-8.1-21.5-21.3h45.2C421.6,310.8,412,299.6,397.1,299.6L397.1,299.6z M376.9,322.8
	c1.3-11.1,9.2-19.1,20.2-19.1c12.5,0,18.7,8.4,19.9,19.1H376.9z"/>
<linearGradient id="SVGID_1_" gradientUnits="userSpaceOnUse" x1="439.8749" y1="326.5197" x2="626.0145" y2="326.5197" gradientTransform="matrix(1 0 0 -1 0 652)">
	<stop  offset="0" style="stop-color:#FF6C0E"/>
	<stop  offset="1" style="stop-color:#EB008B"/>
</linearGradient>
<path class="st1" d="M563.4,286.3c-1.6,0-3.2,0.3-4.8,0.9c-1.5,0.6-2.9,1.5-4,2.7c-1.2,1.2-2.1,2.5-2.7,4c-0.6,1.5-0.9,3.1-0.9,4.8
	l0.1,39.6c0,4.8-1.9,9.5-5.3,12.9c-3.4,3.4-8,5.3-12.9,5.3c-2.4,0-4.8-0.5-7-1.4c-2.2-0.9-4.2-2.3-5.9-3.9c-1.7-1.7-3-3.7-3.9-5.9
	c-0.9-2.2-1.4-4.6-1.4-7l0.1-39.6c0-3.3-1.3-6.4-3.6-8.8c-2.3-2.3-5.5-3.6-8.8-3.6c-3.3,0-6.4,1.3-8.8,3.6c-2.3,2.3-3.6,5.5-3.6,8.8
	v40.1c0,0.6-0.1,1.1-0.3,1.6c-0.2,0.5-0.5,1-0.9,1.4c-0.4,0.4-0.9,0.7-1.4,0.9c-0.5,0.2-1.1,0.3-1.6,0.3c-1.1,0-2.2-0.5-3-1.3
	c-0.8-0.8-1.3-1.9-1.3-3v-26.7c0-3.3-1.3-6.4-3.6-8.8c-2.3-2.3-5.5-3.6-8.8-3.6c-3.3,0-6.4,1.3-8.8,3.6c-2.3,2.3-3.6,5.5-3.7,8.8
	v13.3c0,1.1-0.5,2.2-1.3,3c-0.8,0.8-1.9,1.3-3,1.3c-1.1,0-2.2-0.5-3-1.3c-0.8-0.8-1.3-1.9-1.3-3v-2.6c0-1.1-0.4-2.1-1.2-2.9
	c-0.8-0.8-1.8-1.2-2.9-1.2c-1.1,0-2.1,0.4-2.9,1.2c-0.8,0.8-1.2,1.8-1.2,2.9v2.6c0,3.3,1.3,6.4,3.6,8.8c2.3,2.3,5.5,3.6,8.8,3.6
	c3.3,0,6.4-1.3,8.8-3.6c2.3-2.3,3.6-5.5,3.6-8.8v-13.3c0-1.1,0.5-2.2,1.3-3c0.8-0.8,1.9-1.3,3-1.3c1.1,0,2.2,0.5,3,1.3
	c0.8,0.8,1.3,1.9,1.3,3v26.7c0,3.3,1.3,6.4,3.6,8.8c2.3,2.3,5.5,3.6,8.8,3.6c1.6,0,3.2-0.3,4.8-0.9c1.5-0.6,2.9-1.5,4-2.7
	c1.2-1.2,2.1-2.5,2.7-4c0.6-1.5,0.9-3.1,0.9-4.8v-40.1c0-1.1,0.4-2.2,1.2-3c0.4-0.4,0.9-0.7,1.4-0.9c0.5-0.2,1.1-0.3,1.6-0.3
	c0.6,0,1.1,0.1,1.6,0.3c0.5,0.2,1,0.5,1.4,0.9c0.4,0.4,0.7,0.9,0.9,1.4c0.2,0.5,0.3,1.1,0.3,1.6l-0.1,39.6c0,7,2.8,13.7,7.7,18.6
	c4.9,4.9,11.6,7.7,18.6,7.7c7,0,13.7-2.8,18.6-7.7c4.9-4.9,7.7-11.6,7.7-18.6l-0.1-39.6c0-1.1,0.5-2.2,1.3-3c0.8-0.8,1.9-1.3,3-1.3
	c1.1,0,2.2,0.5,3,1.3c0.8,0.8,1.3,1.9,1.3,3v40.1c0,3.3,1.3,6.4,3.7,8.8c2.3,2.3,5.5,3.6,8.8,3.6c3.3,0,6.4-1.3,8.8-3.6
	c2.3-2.3,3.6-5.5,3.6-8.8v-26.7c0-1.1,0.5-2.2,1.3-3c0.8-0.8,1.9-1.3,3-1.3c0.6,0,1.1,0.1,1.6,0.3c0.5,0.2,1,0.5,1.4,0.9
	c0.4,0.4,0.7,0.9,0.9,1.4c0.2,0.5,0.3,1.1,0.3,1.6v13.3c0,3.3,1.3,6.4,3.6,8.8c2.3,2.3,5.5,3.6,8.8,3.6c3.3,0,6.4-1.3,8.8-3.6
	c2.3-2.3,3.6-5.5,3.6-8.8v-2.6c0-1.1-0.4-2.1-1.2-2.9c-0.8-0.8-1.8-1.2-2.9-1.2c-1.1,0-2.1,0.4-2.9,1.2c-0.8,0.8-1.2,1.8-1.2,2.9
	v2.6c0,1.1-0.5,2.2-1.3,3c-0.8,0.8-1.9,1.3-3,1.3c-1.1,0-2.2-0.5-3-1.3c-0.8-0.8-1.3-1.9-1.3-3v-13.3c0-3.3-1.3-6.4-3.6-8.8
	c-2.3-2.3-5.5-3.6-8.8-3.6c-3.3,0-6.4,1.3-8.8,3.6c-2.3,2.3-3.6,5.5-3.6,8.8v26.8c0,1.1-0.5,2.2-1.3,3c-0.8,0.8-1.9,1.3-3,1.3
	c-1.1,0-2.2-0.5-3-1.3c-0.8-0.8-1.3-1.9-1.3-3v-40.1c0-3.3-1.3-6.5-3.6-8.8c-2.3-2.3-5.5-3.6-8.8-3.6H563.4z"/>
</svg>
